<mxfile host="app.diagrams.net" agent="Mozilla/5.0 (Windows NT 10.0; Win64; x64) AppleWebKit/537.36 (KHTML, like Gecko) Chrome/136.0.0.0 Safari/537.36" version="27.0.3">
  <diagram name="Page-1" id="uSZzwkD7lx5zt7aNEKSo">
    <mxGraphModel dx="786" dy="3759" grid="1" gridSize="10" guides="1" tooltips="1" connect="1" arrows="1" fold="1" page="1" pageScale="1" pageWidth="2339" pageHeight="3300" math="0" shadow="0">
      <root>
        <mxCell id="0" />
        <mxCell id="1" parent="0" />
        <mxCell id="otHFxm3J47twPl9ahbBU-5" value=":Object" style="shape=umlLifeline;perimeter=lifelinePerimeter;whiteSpace=wrap;html=1;container=0;dropTarget=0;collapsible=0;recursiveResize=0;outlineConnect=0;portConstraint=eastwest;newEdgeStyle={&quot;edgeStyle&quot;:&quot;elbowEdgeStyle&quot;,&quot;elbow&quot;:&quot;vertical&quot;,&quot;curved&quot;:0,&quot;rounded&quot;:0};" parent="1" vertex="1">
          <mxGeometry x="340" y="285" width="100" height="300" as="geometry" />
        </mxCell>
        <mxCell id="otHFxm3J47twPl9ahbBU-6" value="" style="html=1;points=[];perimeter=orthogonalPerimeter;outlineConnect=0;targetShapes=umlLifeline;portConstraint=eastwest;newEdgeStyle={&quot;edgeStyle&quot;:&quot;elbowEdgeStyle&quot;,&quot;elbow&quot;:&quot;vertical&quot;,&quot;curved&quot;:0,&quot;rounded&quot;:0};" parent="otHFxm3J47twPl9ahbBU-5" vertex="1">
          <mxGeometry x="45" y="80" width="10" height="170" as="geometry" />
        </mxCell>
        <mxCell id="otHFxm3J47twPl9ahbBU-7" value="lllll" style="html=1;verticalAlign=bottom;endArrow=block;edgeStyle=elbowEdgeStyle;elbow=vertical;curved=0;rounded=0;" parent="1" target="otHFxm3J47twPl9ahbBU-6" edge="1">
          <mxGeometry relative="1" as="geometry">
            <mxPoint x="215" y="365" as="sourcePoint" />
            <Array as="points">
              <mxPoint x="300" y="365" />
            </Array>
          </mxGeometry>
        </mxCell>
        <mxCell id="otHFxm3J47twPl9ahbBU-8" value="return" style="html=1;verticalAlign=bottom;endArrow=open;dashed=1;endSize=8;edgeStyle=elbowEdgeStyle;elbow=vertical;curved=0;rounded=0;" parent="1" source="otHFxm3J47twPl9ahbBU-6" edge="1">
          <mxGeometry relative="1" as="geometry">
            <mxPoint x="215" y="525" as="targetPoint" />
            <Array as="points">
              <mxPoint x="310" y="525" />
            </Array>
          </mxGeometry>
        </mxCell>
        <mxCell id="otHFxm3J47twPl9ahbBU-9" value="callback" style="html=1;verticalAlign=bottom;endArrow=block;edgeStyle=elbowEdgeStyle;elbow=vertical;curved=0;rounded=0;" parent="1" source="otHFxm3J47twPl9ahbBU-6" edge="1">
          <mxGeometry relative="1" as="geometry">
            <mxPoint x="295" y="405" as="sourcePoint" />
            <Array as="points">
              <mxPoint x="310" y="405" />
            </Array>
            <mxPoint x="220" y="405" as="targetPoint" />
          </mxGeometry>
        </mxCell>
        <mxCell id="otHFxm3J47twPl9ahbBU-10" value="return" style="html=1;verticalAlign=bottom;endArrow=open;dashed=1;endSize=8;edgeStyle=elbowEdgeStyle;elbow=vertical;curved=0;rounded=0;" parent="1" target="otHFxm3J47twPl9ahbBU-6" edge="1">
          <mxGeometry relative="1" as="geometry">
            <mxPoint x="295" y="480" as="targetPoint" />
            <Array as="points">
              <mxPoint x="300" y="475" />
            </Array>
            <mxPoint x="220" y="475" as="sourcePoint" />
          </mxGeometry>
        </mxCell>
        <mxCell id="C8GVXlk0ee2tTEkTiSJk-23" value="" style="rounded=0;orthogonalLoop=1;jettySize=auto;html=1;dashed=1;endArrow=none;startFill=0;" edge="1" parent="1" source="otHFxm3J47twPl9ahbBU-11" target="C8GVXlk0ee2tTEkTiSJk-6">
          <mxGeometry relative="1" as="geometry" />
        </mxCell>
        <object label=":Usuario" id="otHFxm3J47twPl9ahbBU-11">
          <mxCell style="shape=umlActor;verticalLabelPosition=bottom;verticalAlign=top;html=1;outlineConnect=0;" parent="1" vertex="1">
            <mxGeometry x="110" y="100" width="30" height="60" as="geometry" />
          </mxCell>
        </object>
        <mxCell id="C8GVXlk0ee2tTEkTiSJk-5" value="loop" style="shape=umlFrame;whiteSpace=wrap;html=1;pointerEvents=0;" vertex="1" parent="1">
          <mxGeometry x="390" y="80" width="280" height="260" as="geometry" />
        </mxCell>
        <mxCell id="C8GVXlk0ee2tTEkTiSJk-6" value="" style="html=1;points=[[0,0,0,0,5],[0,1,0,0,-5],[1,0,0,0,5],[1,1,0,0,-5]];perimeter=orthogonalPerimeter;outlineConnect=0;targetShapes=umlLifeline;portConstraint=eastwest;newEdgeStyle={&quot;curved&quot;:0,&quot;rounded&quot;:0};" vertex="1" parent="1">
          <mxGeometry x="120" y="330" width="10" height="80" as="geometry" />
        </mxCell>
        <mxCell id="C8GVXlk0ee2tTEkTiSJk-7" value="" style="html=1;points=[[0,0,0,0,5],[0,1,0,0,-5],[1,0,0,0,5],[1,1,0,0,-5]];perimeter=orthogonalPerimeter;outlineConnect=0;targetShapes=umlLifeline;portConstraint=eastwest;newEdgeStyle={&quot;curved&quot;:0,&quot;rounded&quot;:0};" vertex="1" parent="1">
          <mxGeometry x="610" y="180" width="10" height="50" as="geometry" />
        </mxCell>
        <mxCell id="C8GVXlk0ee2tTEkTiSJk-10" value="" style="html=1;points=[[0,0,0,0,5],[0,1,0,0,-5],[1,0,0,0,5],[1,1,0,0,-5]];perimeter=orthogonalPerimeter;outlineConnect=0;targetShapes=umlLifeline;portConstraint=eastwest;newEdgeStyle={&quot;curved&quot;:0,&quot;rounded&quot;:0};" vertex="1" parent="1">
          <mxGeometry x="240" y="165" width="10" height="80" as="geometry" />
        </mxCell>
        <mxCell id="C8GVXlk0ee2tTEkTiSJk-13" value="dispatch" style="html=1;verticalAlign=bottom;endArrow=block;curved=0;rounded=0;" edge="1" parent="1" source="C8GVXlk0ee2tTEkTiSJk-10" target="C8GVXlk0ee2tTEkTiSJk-7">
          <mxGeometry width="80" relative="1" as="geometry">
            <mxPoint x="290" y="200" as="sourcePoint" />
            <mxPoint x="330" y="204.5" as="targetPoint" />
          </mxGeometry>
        </mxCell>
        <mxCell id="C8GVXlk0ee2tTEkTiSJk-24" value="Entity Object" style="ellipse;shape=umlEntity;whiteSpace=wrap;html=1;" vertex="1" parent="1">
          <mxGeometry x="280" y="-180" width="80" height="80" as="geometry" />
        </mxCell>
      </root>
    </mxGraphModel>
  </diagram>
</mxfile>
